<mxfile host="app.diagrams.net" agent="Mozilla/5.0 (Windows NT 10.0; Win64; x64; rv:133.0) Gecko/20100101 Firefox/133.0" version="25.0.3">
  <diagram name="Страница — 1" id="BuMqyn-qtGa89qDNM-TT">
    <mxGraphModel dx="1615" dy="871" grid="1" gridSize="10" guides="1" tooltips="1" connect="1" arrows="1" fold="1" page="1" pageScale="1" pageWidth="827" pageHeight="1169" math="0" shadow="0">
      <root>
        <mxCell id="0" />
        <mxCell id="1" parent="0" />
        <mxCell id="yWKveyhSg7M6PfVjzcy--1" style="edgeStyle=orthogonalEdgeStyle;rounded=0;orthogonalLoop=1;jettySize=auto;html=1;entryX=0.5;entryY=0;entryDx=0;entryDy=0;" parent="1" source="yWKveyhSg7M6PfVjzcy--2" target="yWKveyhSg7M6PfVjzcy--4" edge="1">
          <mxGeometry relative="1" as="geometry" />
        </mxCell>
        <mxCell id="yWKveyhSg7M6PfVjzcy--2" value="&lt;font style=&quot;font-size: 21px;&quot;&gt;Start&lt;/font&gt;" style="rounded=1;whiteSpace=wrap;html=1;glass=0;shadow=0;arcSize=50;" parent="1" vertex="1">
          <mxGeometry x="370" y="10" width="130" height="60" as="geometry" />
        </mxCell>
        <mxCell id="yWKveyhSg7M6PfVjzcy--3" value="" style="edgeStyle=orthogonalEdgeStyle;rounded=0;orthogonalLoop=1;jettySize=auto;html=1;" parent="1" source="yWKveyhSg7M6PfVjzcy--4" edge="1">
          <mxGeometry relative="1" as="geometry">
            <mxPoint x="435" y="170" as="targetPoint" />
          </mxGeometry>
        </mxCell>
        <mxCell id="yWKveyhSg7M6PfVjzcy--4" value="ChatID" style="shape=parallelogram;perimeter=parallelogramPerimeter;whiteSpace=wrap;html=1;fixedSize=1;size=12.5;" parent="1" vertex="1">
          <mxGeometry x="367.5" y="90" width="135" height="60" as="geometry" />
        </mxCell>
        <mxCell id="yWKveyhSg7M6PfVjzcy--5" style="edgeStyle=orthogonalEdgeStyle;rounded=0;orthogonalLoop=1;jettySize=auto;html=1;entryX=0.5;entryY=0;entryDx=0;entryDy=0;" parent="1" target="yWKveyhSg7M6PfVjzcy--11" edge="1">
          <mxGeometry relative="1" as="geometry">
            <mxPoint x="435" y="230" as="sourcePoint" />
          </mxGeometry>
        </mxCell>
        <mxCell id="yWKveyhSg7M6PfVjzcy--14" style="edgeStyle=orthogonalEdgeStyle;rounded=0;orthogonalLoop=1;jettySize=auto;html=1;entryX=0.5;entryY=0;entryDx=0;entryDy=0;" parent="1" source="yWKveyhSg7M6PfVjzcy--15" target="yWKveyhSg7M6PfVjzcy--17" edge="1">
          <mxGeometry relative="1" as="geometry" />
        </mxCell>
        <mxCell id="yWKveyhSg7M6PfVjzcy--15" value="Database delete record request" style="whiteSpace=wrap;html=1;" parent="1" vertex="1">
          <mxGeometry x="375" y="170" width="120" height="60" as="geometry" />
        </mxCell>
        <mxCell id="yWKveyhSg7M6PfVjzcy--16" style="edgeStyle=orthogonalEdgeStyle;rounded=0;orthogonalLoop=1;jettySize=auto;html=1;exitX=0.5;exitY=1;exitDx=0;exitDy=0;entryX=0.5;entryY=0;entryDx=0;entryDy=0;" parent="1" source="yWKveyhSg7M6PfVjzcy--17" target="yWKveyhSg7M6PfVjzcy--22" edge="1">
          <mxGeometry relative="1" as="geometry" />
        </mxCell>
        <mxCell id="yWKveyhSg7M6PfVjzcy--17" value="&lt;div&gt;Request result&lt;/div&gt;&lt;div&gt;status&lt;br&gt;&lt;/div&gt;" style="shape=parallelogram;perimeter=parallelogramPerimeter;whiteSpace=wrap;html=1;fixedSize=1;size=15;" parent="1" vertex="1">
          <mxGeometry x="375" y="250" width="120" height="60" as="geometry" />
        </mxCell>
        <mxCell id="yWKveyhSg7M6PfVjzcy--18" style="edgeStyle=orthogonalEdgeStyle;rounded=0;orthogonalLoop=1;jettySize=auto;html=1;entryX=0.5;entryY=1;entryDx=0;entryDy=0;" parent="1" source="yWKveyhSg7M6PfVjzcy--22" target="5RXyG6ZOyGsMjjcRBXWh-1" edge="1">
          <mxGeometry relative="1" as="geometry">
            <mxPoint x="657.81" y="540" as="targetPoint" />
          </mxGeometry>
        </mxCell>
        <mxCell id="yWKveyhSg7M6PfVjzcy--19" value="&lt;div&gt;No&lt;/div&gt;" style="edgeLabel;html=1;align=center;verticalAlign=middle;resizable=0;points=[];" parent="yWKveyhSg7M6PfVjzcy--18" vertex="1" connectable="0">
          <mxGeometry x="-0.7344" relative="1" as="geometry">
            <mxPoint as="offset" />
          </mxGeometry>
        </mxCell>
        <mxCell id="yWKveyhSg7M6PfVjzcy--20" value="" style="edgeStyle=orthogonalEdgeStyle;rounded=0;orthogonalLoop=1;jettySize=auto;html=1;entryX=0;entryY=0.5;entryDx=0;entryDy=0;exitX=0;exitY=0.5;exitDx=0;exitDy=0;" parent="1" edge="1" target="u62cywSmhKUIR9QLg78A-1" source="yWKveyhSg7M6PfVjzcy--22">
          <mxGeometry relative="1" as="geometry">
            <mxPoint x="480.00000000000045" y="610.0000000000002" as="sourcePoint" />
            <mxPoint x="435" y="690" as="targetPoint" />
            <Array as="points">
              <mxPoint x="350" y="370" />
              <mxPoint x="350" y="480" />
            </Array>
          </mxGeometry>
        </mxCell>
        <mxCell id="yWKveyhSg7M6PfVjzcy--21" value="Yes" style="edgeLabel;html=1;align=center;verticalAlign=middle;resizable=0;points=[];" parent="yWKveyhSg7M6PfVjzcy--20" vertex="1" connectable="0">
          <mxGeometry x="-0.46" y="3" relative="1" as="geometry">
            <mxPoint as="offset" />
          </mxGeometry>
        </mxCell>
        <mxCell id="yWKveyhSg7M6PfVjzcy--22" value="result status &lt;br&gt;is true?" style="rhombus;whiteSpace=wrap;html=1;" parent="1" vertex="1">
          <mxGeometry x="372.19" y="330" width="125.62" height="80" as="geometry" />
        </mxCell>
        <mxCell id="yWKveyhSg7M6PfVjzcy--25" style="edgeStyle=orthogonalEdgeStyle;rounded=0;orthogonalLoop=1;jettySize=auto;html=1;exitX=0.5;exitY=1;exitDx=0;exitDy=0;entryX=0.5;entryY=0;entryDx=0;entryDy=0;" parent="1" target="yWKveyhSg7M6PfVjzcy--28" edge="1">
          <mxGeometry relative="1" as="geometry">
            <mxPoint x="435" y="510" as="sourcePoint" />
          </mxGeometry>
        </mxCell>
        <mxCell id="yWKveyhSg7M6PfVjzcy--27" style="edgeStyle=orthogonalEdgeStyle;rounded=0;orthogonalLoop=1;jettySize=auto;html=1;entryX=0.5;entryY=0;entryDx=0;entryDy=0;" parent="1" source="yWKveyhSg7M6PfVjzcy--28" target="yWKveyhSg7M6PfVjzcy--29" edge="1">
          <mxGeometry relative="1" as="geometry" />
        </mxCell>
        <mxCell id="yWKveyhSg7M6PfVjzcy--28" value="Redirect to new chat" style="whiteSpace=wrap;html=1;" parent="1" vertex="1">
          <mxGeometry x="375" y="530" width="120" height="60" as="geometry" />
        </mxCell>
        <mxCell id="yWKveyhSg7M6PfVjzcy--29" value="End" style="rounded=1;whiteSpace=wrap;html=1;glass=0;shadow=0;arcSize=50;" parent="1" vertex="1">
          <mxGeometry x="370" y="610" width="130" height="60" as="geometry" />
        </mxCell>
        <mxCell id="u62cywSmhKUIR9QLg78A-1" value="&lt;div&gt;Alarm(&quot;You just&amp;nbsp;&lt;/div&gt;&lt;div&gt;have deleted {ChatName} chat&quot;)&lt;/div&gt;" style="shape=parallelogram;perimeter=parallelogramPerimeter;whiteSpace=wrap;html=1;fixedSize=1;" parent="1" vertex="1">
          <mxGeometry x="352.5" y="450" width="165" height="60" as="geometry" />
        </mxCell>
        <mxCell id="5RXyG6ZOyGsMjjcRBXWh-2" style="edgeStyle=orthogonalEdgeStyle;rounded=0;orthogonalLoop=1;jettySize=auto;html=1;" edge="1" parent="1" source="5RXyG6ZOyGsMjjcRBXWh-1">
          <mxGeometry relative="1" as="geometry">
            <mxPoint x="440" y="80" as="targetPoint" />
            <Array as="points">
              <mxPoint x="590" y="80" />
            </Array>
          </mxGeometry>
        </mxCell>
        <mxCell id="5RXyG6ZOyGsMjjcRBXWh-1" value="Warning (&quot;The error occurred, please try again&quot;)" style="shape=parallelogram;perimeter=parallelogramPerimeter;whiteSpace=wrap;html=1;fixedSize=1;" vertex="1" parent="1">
          <mxGeometry x="530" y="210" width="120" height="60" as="geometry" />
        </mxCell>
      </root>
    </mxGraphModel>
  </diagram>
</mxfile>
